# xmcd CD database file
#
# Track frame offsets:
#	150
#	21940
#	52830
#	87564
#	115176
#	136609
#	177331
#	313408
#
# Disc length: 4549 seconds
#
# Revision: 0
# Processed by: cddbd v1.5PL3 Copyright (c) Steve Scherf et al.
# Submitted via: CDex 1.51
#
DISCID=6611c308
DTITLE=The Mark Almond Band - Intro to Jazz Rock Fusion (Live)
DYEAR=1900
DGENRE=Jazz
TTITLE0=Get Yourself Together
TTITLE1=What Am I Living For
TTITLE2=The Neighborhood Man
TTITLE3=Then I Have You
TTITLE4=You Look Just Like a Girl Again
TTITLE5=Lonely Girl
TTITLE6=New York State of Mind/The City
TTITLE7=Girl on Table Four
EXTD=
EXTT0=
EXTT1=
EXTT2=
EXTT3=
EXTT4=
EXTT5=
EXTT6=
EXTT7=
PLAYORDER=
